<mxfile host="app.diagrams.net" modified="2023-05-31T23:53:05.130Z" agent="Mozilla/5.0 (Windows NT 10.0; Win64; x64) AppleWebKit/537.36 (KHTML, like Gecko) Chrome/113.0.0.0 Safari/537.36" etag="f-_wDLYGOa1HSuXUCQL3" version="21.3.0" type="onedrive">
  <diagram name="PÃ¡gina-1" id="a9Jc6Adj3jZeufFvhVDS">
    <mxGraphModel grid="1" page="1" gridSize="10" guides="1" tooltips="1" connect="1" arrows="1" fold="1" pageScale="1" pageWidth="1100" pageHeight="850" math="0" shadow="0">
      <root>
        <mxCell id="0" />
        <mxCell id="1" parent="0" />
        <mxCell id="jiEXYApWA0r1bEQ7I0TB-37" value="CURSO" style="whiteSpace=wrap;html=1;align=center;" vertex="1" parent="1">
          <mxGeometry x="1170" y="340" width="100" height="40" as="geometry" />
        </mxCell>
        <mxCell id="jiEXYApWA0r1bEQ7I0TB-38" value="ESTUDIANTE" style="whiteSpace=wrap;html=1;align=center;" vertex="1" parent="1">
          <mxGeometry x="780" y="340" width="100" height="40" as="geometry" />
        </mxCell>
        <mxCell id="jiEXYApWA0r1bEQ7I0TB-40" value="aprueba" style="shape=rhombus;perimeter=rhombusPerimeter;whiteSpace=wrap;html=1;align=center;" vertex="1" parent="1">
          <mxGeometry x="960" y="330" width="120" height="60" as="geometry" />
        </mxCell>
        <mxCell id="jiEXYApWA0r1bEQ7I0TB-41" style="rounded=0;orthogonalLoop=1;jettySize=auto;html=1;endArrow=none;endFill=0;" edge="1" parent="1" source="jiEXYApWA0r1bEQ7I0TB-37" target="jiEXYApWA0r1bEQ7I0TB-40">
          <mxGeometry relative="1" as="geometry">
            <mxPoint x="1240" y="359.5" as="sourcePoint" />
            <mxPoint x="1060" y="359.5" as="targetPoint" />
          </mxGeometry>
        </mxCell>
        <mxCell id="jiEXYApWA0r1bEQ7I0TB-64" value="&lt;font style=&quot;font-size: 16px;&quot;&gt;N&lt;/font&gt;" style="edgeLabel;html=1;align=center;verticalAlign=middle;resizable=0;points=[];" connectable="0" vertex="1" parent="jiEXYApWA0r1bEQ7I0TB-41">
          <mxGeometry x="-0.44" y="-2" relative="1" as="geometry">
            <mxPoint x="1" y="-4" as="offset" />
          </mxGeometry>
        </mxCell>
        <mxCell id="jiEXYApWA0r1bEQ7I0TB-42" style="rounded=0;orthogonalLoop=1;jettySize=auto;html=1;endArrow=none;endFill=0;" edge="1" parent="1" source="jiEXYApWA0r1bEQ7I0TB-38" target="jiEXYApWA0r1bEQ7I0TB-40">
          <mxGeometry relative="1" as="geometry">
            <mxPoint x="700" y="580" as="sourcePoint" />
            <mxPoint x="700" y="640" as="targetPoint" />
          </mxGeometry>
        </mxCell>
        <mxCell id="jiEXYApWA0r1bEQ7I0TB-63" value="N" style="edgeLabel;html=1;align=center;verticalAlign=middle;resizable=0;points=[];fontSize=18;" connectable="0" vertex="1" parent="jiEXYApWA0r1bEQ7I0TB-42">
          <mxGeometry x="-0.4667" y="-1" relative="1" as="geometry">
            <mxPoint x="11" y="-1" as="offset" />
          </mxGeometry>
        </mxCell>
        <mxCell id="jiEXYApWA0r1bEQ7I0TB-44" value="INSTANCIA" style="whiteSpace=wrap;html=1;align=center;" vertex="1" parent="1">
          <mxGeometry x="900" y="640" width="100" height="40" as="geometry" />
        </mxCell>
        <mxCell id="jiEXYApWA0r1bEQ7I0TB-45" value="ID_PROFESOR" style="ellipse;whiteSpace=wrap;html=1;align=center;fontStyle=4" vertex="1" parent="1">
          <mxGeometry x="1010" y="540" width="100" height="40" as="geometry" />
        </mxCell>
        <mxCell id="jiEXYApWA0r1bEQ7I0TB-46" value="ID_CURSOS" style="ellipse;whiteSpace=wrap;html=1;align=center;fontStyle=4" vertex="1" parent="1">
          <mxGeometry x="1060" y="610" width="100" height="40" as="geometry" />
        </mxCell>
        <mxCell id="jiEXYApWA0r1bEQ7I0TB-47" value="SEMESTRE" style="ellipse;whiteSpace=wrap;html=1;align=center;fontStyle=4" vertex="1" parent="1">
          <mxGeometry x="1040" y="720" width="100" height="40" as="geometry" />
        </mxCell>
        <mxCell id="jiEXYApWA0r1bEQ7I0TB-48" style="rounded=0;orthogonalLoop=1;jettySize=auto;html=1;endArrow=none;endFill=0;" edge="1" parent="1" source="jiEXYApWA0r1bEQ7I0TB-47" target="jiEXYApWA0r1bEQ7I0TB-44">
          <mxGeometry relative="1" as="geometry">
            <mxPoint x="700" y="760" as="sourcePoint" />
            <mxPoint x="700" y="700" as="targetPoint" />
          </mxGeometry>
        </mxCell>
        <mxCell id="jiEXYApWA0r1bEQ7I0TB-49" style="rounded=0;orthogonalLoop=1;jettySize=auto;html=1;endArrow=none;endFill=0;" edge="1" parent="1" source="jiEXYApWA0r1bEQ7I0TB-46" target="jiEXYApWA0r1bEQ7I0TB-44">
          <mxGeometry relative="1" as="geometry">
            <mxPoint x="1071" y="734" as="sourcePoint" />
            <mxPoint x="995" y="690" as="targetPoint" />
          </mxGeometry>
        </mxCell>
        <mxCell id="jiEXYApWA0r1bEQ7I0TB-50" style="rounded=0;orthogonalLoop=1;jettySize=auto;html=1;endArrow=none;endFill=0;" edge="1" parent="1" source="jiEXYApWA0r1bEQ7I0TB-45" target="jiEXYApWA0r1bEQ7I0TB-44">
          <mxGeometry relative="1" as="geometry">
            <mxPoint x="1074" y="648" as="sourcePoint" />
            <mxPoint x="1010" y="661" as="targetPoint" />
          </mxGeometry>
        </mxCell>
        <mxCell id="jiEXYApWA0r1bEQ7I0TB-67" value="CI" style="ellipse;whiteSpace=wrap;html=1;align=center;fontStyle=4" vertex="1" parent="1">
          <mxGeometry x="785" y="260" width="100" height="40" as="geometry" />
        </mxCell>
        <mxCell id="jiEXYApWA0r1bEQ7I0TB-70" style="rounded=0;orthogonalLoop=1;jettySize=auto;html=1;endArrow=none;endFill=0;" edge="1" parent="1" source="jiEXYApWA0r1bEQ7I0TB-67" target="jiEXYApWA0r1bEQ7I0TB-38">
          <mxGeometry relative="1" as="geometry">
            <mxPoint x="796" y="384" as="sourcePoint" />
            <mxPoint x="725" y="301" as="targetPoint" />
          </mxGeometry>
        </mxCell>
        <mxCell id="jiEXYApWA0r1bEQ7I0TB-72" value="COD" style="ellipse;whiteSpace=wrap;html=1;align=center;fontStyle=4" vertex="1" parent="1">
          <mxGeometry x="1180" y="250" width="100" height="40" as="geometry" />
        </mxCell>
        <mxCell id="jiEXYApWA0r1bEQ7I0TB-73" value="NOMBRE CURSO" style="ellipse;whiteSpace=wrap;html=1;align=center;fontStyle=0" vertex="1" parent="1">
          <mxGeometry x="1338" y="299" width="100" height="40" as="geometry" />
        </mxCell>
        <mxCell id="jiEXYApWA0r1bEQ7I0TB-74" style="rounded=0;orthogonalLoop=1;jettySize=auto;html=1;endArrow=none;endFill=0;" edge="1" parent="1" source="jiEXYApWA0r1bEQ7I0TB-73" target="jiEXYApWA0r1bEQ7I0TB-37">
          <mxGeometry relative="1" as="geometry">
            <mxPoint x="1349" y="423" as="sourcePoint" />
            <mxPoint x="1278" y="340" as="targetPoint" />
            <Array as="points">
              <mxPoint x="1310" y="340" />
            </Array>
          </mxGeometry>
        </mxCell>
        <mxCell id="jiEXYApWA0r1bEQ7I0TB-75" style="rounded=0;orthogonalLoop=1;jettySize=auto;html=1;endArrow=none;endFill=0;" edge="1" parent="1" source="jiEXYApWA0r1bEQ7I0TB-72" target="jiEXYApWA0r1bEQ7I0TB-37">
          <mxGeometry relative="1" as="geometry">
            <mxPoint x="1352" y="337" as="sourcePoint" />
            <mxPoint x="1250" y="329" as="targetPoint" />
          </mxGeometry>
        </mxCell>
        <mxCell id="jiEXYApWA0r1bEQ7I0TB-76" value="DESC" style="ellipse;whiteSpace=wrap;html=1;align=center;fontStyle=0" vertex="1" parent="1">
          <mxGeometry x="980" y="250" width="100" height="40" as="geometry" />
        </mxCell>
        <mxCell id="jiEXYApWA0r1bEQ7I0TB-77" style="rounded=0;orthogonalLoop=1;jettySize=auto;html=1;endArrow=none;endFill=0;" edge="1" parent="1" source="jiEXYApWA0r1bEQ7I0TB-76" target="jiEXYApWA0r1bEQ7I0TB-40">
          <mxGeometry relative="1" as="geometry">
            <mxPoint x="1309" y="524" as="sourcePoint" />
            <mxPoint x="1230" y="450" as="targetPoint" />
            <Array as="points" />
          </mxGeometry>
        </mxCell>
        <mxCell id="jiEXYApWA0r1bEQ7I0TB-78" value="NOMBRE" style="ellipse;whiteSpace=wrap;html=1;align=center;fontStyle=0" vertex="1" parent="1">
          <mxGeometry x="640" y="360" width="100" height="40" as="geometry" />
        </mxCell>
        <mxCell id="jiEXYApWA0r1bEQ7I0TB-79" style="rounded=0;orthogonalLoop=1;jettySize=auto;html=1;endArrow=none;endFill=0;" edge="1" parent="1" source="jiEXYApWA0r1bEQ7I0TB-78" target="jiEXYApWA0r1bEQ7I0TB-38">
          <mxGeometry relative="1" as="geometry">
            <mxPoint x="275" y="390" as="sourcePoint" />
            <mxPoint x="683" y="360" as="targetPoint" />
          </mxGeometry>
        </mxCell>
        <mxCell id="jiEXYApWA0r1bEQ7I0TB-80" value="DESC" style="ellipse;whiteSpace=wrap;html=1;align=center;fontStyle=0" vertex="1" parent="1">
          <mxGeometry x="1030" y="430" width="100" height="40" as="geometry" />
        </mxCell>
        <mxCell id="jiEXYApWA0r1bEQ7I0TB-81" style="rounded=0;orthogonalLoop=1;jettySize=auto;html=1;endArrow=none;endFill=0;" edge="1" parent="1" source="jiEXYApWA0r1bEQ7I0TB-80" target="jiEXYApWA0r1bEQ7I0TB-40">
          <mxGeometry relative="1" as="geometry">
            <mxPoint x="1359" y="704" as="sourcePoint" />
            <mxPoint x="1059" y="514" as="targetPoint" />
            <Array as="points" />
          </mxGeometry>
        </mxCell>
      </root>
    </mxGraphModel>
  </diagram>
</mxfile>
